C:\GBW_MyPrograms\KinderuniversiteitApp\Resultaten\Ellis\Mars\Mars_v2.mot
version=1
nRows=13
nColumns=29
inDegrees=yes
endheader
                time	         pelvis_tilt	           pelvis_tx	           pelvis_ty	       hip_flexion_l	       hip_flexion_r	        knee_angle_l	        knee_angle_r	       ankle_angle_l	       ankle_angle_r	    lumbar_extension	hamstrings_r/activation	bifemsh_r/activation	glut_max_r/activation	iliopsoas_r/activation	rect_fem_r/activation	  vasti_r/activation	gastroc_r/activation	 soleus_r/activation	tib_ant_r/activation	hamstrings_l/activation	bifemsh_l/activation	glut_max_l/activation	iliopsoas_l/activation	rect_fem_l/activation	  vasti_l/activation	gastroc_l/activation	 soleus_l/activation	tib_ant_l/activation	
          1.24069233	         -6.53899001	          1.36096518	          0.91771921	         25.40383625	         -5.40410004	         -9.67046368	        -30.91403671	          3.89980831	         -3.35415233	        -10.91795997	          0.55604415	          0.64372675	          0.29591014	          0.63756000	          0.26950009	          0.19727404	          0.41636105	          0.24789943	          0.62027853	          0.39629955	          0.39284527	          0.47810673	          0.42193684	          0.42551383	          0.46671749	          0.30995011	          0.29266357	          0.50652875	
          1.25309925	         -6.87752896	          1.37672755	          0.91950892	         24.93678816	         -4.22311206	         -9.95192053	        -32.00375035	          3.84335776	         -2.65308512	        -10.48685150	          0.52660498	          0.57821465	          0.29287609	          0.58073751	          0.27171309	          0.17744998	          0.35399910	          0.20879432	          0.68194656	          0.38234584	          0.39082169	          0.46850601	          0.40349629	          0.42292618	          0.47858671	          0.31908286	          0.30757336	          0.48567003	
          1.26550617	         -7.28296532	          1.39197392	          0.92124434	         24.52383421	         -2.63901886	        -10.16612330	        -33.33532473	          3.89758791	         -1.28122084	         -9.98088262	          0.51423257	          0.54391516	          0.28460933	          0.54471934	          0.27297750	          0.15948290	          0.30168869	          0.17592761	          0.75348485	          0.36501621	          0.39201594	          0.44717715	          0.39977056	          0.42315217	          0.46923365	          0.32929292	          0.31913719	          0.46947036	
          1.27791310	         -7.70858296	          1.40685427	          0.92305006	         24.09960875	         -0.77226486	        -10.29787606	        -34.75760877	          4.04089548	          0.91837439	         -9.46286801	          0.50898899	          0.53756521	          0.27141989	          0.53413788	          0.27701150	          0.14303941	          0.25853580	          0.14853319	          0.78509238	          0.34352474	          0.39287486	          0.42111681	          0.41496125	          0.43076262	          0.46119098	          0.33920942	          0.32889640	          0.45570724	
          1.29032002	         -8.12414762	          1.42141589	          0.92497524	         23.62102856	          1.33222843	        -10.32784409	        -36.25025079	          4.24258422	          3.66632436	         -8.91485840	          0.48703676	          0.52421265	          0.26252638	          0.52606031	          0.30515134	          0.13530962	          0.22597597	          0.12691241	          0.77817819	          0.32541454	          0.39504643	          0.39704382	          0.43422466	          0.43706516	          0.44687898	          0.34728482	          0.33390245	          0.44724940	
          1.30272694	         -8.52081227	          1.43567923	          0.92699674	         23.07245470	          3.64618500	        -10.24226666	        -38.01041855	          4.47780142	          5.72772613	         -8.36381907	          0.44937740	          0.49529705	          0.25450525	          0.52298336	          0.35761135	          0.16486261	          0.25096120	          0.13439526	          0.68533813	          0.31041062	          0.39742563	          0.37133683	          0.45857326	          0.44412895	          0.43369003	          0.35286332	          0.33704109	          0.44157683	
          1.31513387	         -8.89781204	          1.44970055	          0.92905037	         22.45784946	          5.98040891	        -10.05310852	        -39.88890889	          4.74005232	          6.72744585	         -7.82516081	          0.41939235	          0.47606866	          0.24625990	          0.52249254	          0.38880952	          0.18144589	          0.27474985	          0.15159595	          0.62221161	          0.29905177	          0.39901686	          0.35156029	          0.47821535	          0.44924987	          0.42413490	          0.35699320	          0.33876890	          0.43763785	
          1.32754079	         -9.28097163	          1.46343980	          0.93101883	         21.82438597	          8.18517622	         -9.79005313	        -41.36169578	          5.02025682	          7.54243269	         -7.29255068	          0.39375305	          0.45882458	          0.24620034	          0.51570080	          0.41053214	          0.21090482	          0.31786660	          0.22081731	          0.55983109	          0.29137457	          0.40033612	          0.33961012	          0.48831387	          0.45158280	          0.41657936	          0.35968940	          0.33902677	          0.43552195	
          1.33994771	         -9.69349403	          1.47683523	          0.93281428	         21.20217291	         10.31224626	         -9.45355420	        -42.49730799	          5.29760736	          8.17252576	         -6.75808768	          0.37174692	          0.44390903	          0.25137440	          0.50680085	          0.42463949	          0.24655590	          0.34357750	          0.27136334	          0.51177499	          0.28630569	          0.40140554	          0.33147003	          0.49596559	          0.45307067	          0.41053913	          0.36147902	          0.33866354	          0.43432040	
          1.35235464	        -10.11616119	          1.48986957	          0.93442887	         20.56936260	         12.41716963	         -9.03681645	        -43.39689627	          5.55864254	          8.67927710	         -6.28178639	          0.35386758	          0.43102585	          0.26124856	          0.49535020	          0.43256826	          0.28306123	          0.35553981	          0.30195796	          0.47603000	          0.28457248	          0.40211546	          0.32830788	          0.49778954	          0.45286977	          0.40645059	          0.36261526	          0.33822523	          0.43339917	
          1.36476156	        -10.52070111	          1.50254772	          0.93586708	         19.89818649	         14.53606599	         -8.54312078	        -44.15217296	          5.80016580	          9.09881309	         -5.91312637	          0.33886895	          0.41984231	          0.27278782	          0.48294559	          0.43675744	          0.31624302	          0.35716440	          0.31665996	          0.44984274	          0.28511765	          0.40262267	          0.32809041	          0.49660105	          0.45176743	          0.40352852	          0.36347218	          0.33790539	          0.43245947	
          1.37716848	        -10.88405918	          1.51487262	          0.93712910	         19.16960007	         16.68721857	         -7.98192959	        -44.81815395	          6.02298322	          9.46122049	         -5.64741418	          0.32553676	          0.40960223	          0.28449199	          0.46957575	          0.43889468	          0.34577623	          0.35020386	          0.31855827	          0.43047375	          0.28719686	          0.40304992	          0.32969927	          0.49321179	          0.45001333	          0.40123324	          0.36421462	          0.33769194	          0.43137600	
          1.38957541	        -11.19755744	          1.52682329	          0.93819877	         18.38234500	         18.87901031	         -7.36499471	        -45.39512355	          6.22800978	          9.81688847	         -5.49316978	          0.31215298	          0.39932770	          0.29527364	          0.45492030	          0.44071929	          0.37308620	          0.33550782	          0.30989386	          0.41542621	          0.28938128	          0.40344791	          0.33211822	          0.48853411	          0.44812369	          0.39939662	          0.36488858	          0.33745732	          0.43007142	
